<?xml version="1.0" encoding="UTF-8" standalone="no"?>
<!DOCTYPE svg PUBLIC "-//W3C//DTD SVG 1.1//EN"
 "http://www.w3.org/Graphics/SVG/1.1/DTD/svg11.dtd">
<!-- Generated by graphviz version 2.36.0 (20140111.2315)
 -->
<!-- Title: G Pages: 1 -->
<svg width="629pt" height="171pt"
 viewBox="0.00 0.00 629.20 171.24" xmlns="http://www.w3.org/2000/svg" xmlns:xlink="http://www.w3.org/1999/xlink">
<g id="graph0" class="graph" transform="scale(1 1) rotate(0) translate(21.6 149.638)">
<title>G</title>
<polygon fill="#111111" stroke="none" points="-21.6,21.6 -21.6,-149.638 607.6,-149.638 607.6,21.6 -21.6,21.6"/>
<!-- aliases&#45;and&#45;guards.ts -->
<g id="node1" class="node"><title>aliases&#45;and&#45;guards.ts</title>
<path fill="none" stroke="#cfffac" d="M578.333,-102.5C578.333,-102.5 443.667,-102.5 443.667,-102.5 439.833,-102.5 436,-98.6667 436,-94.8333 436,-94.8333 436,-87.1667 436,-87.1667 436,-83.3333 439.833,-79.5 443.667,-79.5 443.667,-79.5 578.333,-79.5 578.333,-79.5 582.167,-79.5 586,-83.3333 586,-87.1667 586,-87.1667 586,-94.8333 586,-94.8333 586,-98.6667 582.167,-102.5 578.333,-102.5"/>
<text text-anchor="middle" x="511" y="-87.3" font-family="Arial" font-size="14.00" fill="#cfffac">aliases&#45;and&#45;guards.ts</text>
</g>
<!-- functional&#45;helpers.ts -->
<g id="node2" class="node"><title>functional&#45;helpers.ts</title>
<path fill="none" stroke="#cfffac" d="M236.333,-102.5C236.333,-102.5 109.667,-102.5 109.667,-102.5 105.833,-102.5 102,-98.6667 102,-94.8333 102,-94.8333 102,-87.1667 102,-87.1667 102,-83.3333 105.833,-79.5 109.667,-79.5 109.667,-79.5 236.333,-79.5 236.333,-79.5 240.167,-79.5 244,-83.3333 244,-87.1667 244,-87.1667 244,-94.8333 244,-94.8333 244,-98.6667 240.167,-102.5 236.333,-102.5"/>
<text text-anchor="middle" x="173" y="-87.3" font-family="Arial" font-size="14.00" fill="#cfffac">functional&#45;helpers.ts</text>
</g>
<!-- index.ts -->
<g id="node3" class="node"><title>index.ts</title>
<path fill="none" stroke="#c6c5fe" d="M57.8333,-82.5C57.8333,-82.5 8.16667,-82.5 8.16667,-82.5 4.33333,-82.5 0.5,-78.6667 0.5,-74.8333 0.5,-74.8333 0.5,-67.1667 0.5,-67.1667 0.5,-63.3333 4.33333,-59.5 8.16667,-59.5 8.16667,-59.5 57.8333,-59.5 57.8333,-59.5 61.6667,-59.5 65.5,-63.3333 65.5,-67.1667 65.5,-67.1667 65.5,-74.8333 65.5,-74.8333 65.5,-78.6667 61.6667,-82.5 57.8333,-82.5"/>
<text text-anchor="middle" x="33" y="-67.3" font-family="Arial" font-size="14.00" fill="#c6c5fe">index.ts</text>
</g>
<!-- index.ts&#45;&gt;aliases&#45;and&#45;guards.ts -->
<g id="edge1" class="edge"><title>index.ts&#45;&gt;aliases&#45;and&#45;guards.ts</title>
<path fill="none" stroke="#757575" d="M48.0905,-82.3507C61.1746,-92.1087 81.6483,-105.458 102,-111 224.382,-144.326 374.904,-121.324 454.514,-104.434"/>
<polygon fill="#757575" stroke="#757575" points="455.3,-107.845 464.332,-102.306 453.817,-101.004 455.3,-107.845"/>
</g>
<!-- index.ts&#45;&gt;functional&#45;helpers.ts -->
<g id="edge2" class="edge"><title>index.ts&#45;&gt;functional&#45;helpers.ts</title>
<path fill="none" stroke="#757575" d="M65.66,-75.5884C73.666,-76.7487 82.6317,-78.0481 91.8708,-79.3871"/>
<polygon fill="#757575" stroke="#757575" points="91.5725,-82.8803 101.971,-80.8509 92.5766,-75.9527 91.5725,-82.8803"/>
</g>
<!-- mapped&#45;types.ts -->
<g id="node4" class="node"><title>mapped&#45;types.ts</title>
<path fill="none" stroke="#c6c5fe" d="M392.333,-62.5C392.333,-62.5 287.667,-62.5 287.667,-62.5 283.833,-62.5 280,-58.6667 280,-54.8333 280,-54.8333 280,-47.1667 280,-47.1667 280,-43.3333 283.833,-39.5 287.667,-39.5 287.667,-39.5 392.333,-39.5 392.333,-39.5 396.167,-39.5 400,-43.3333 400,-47.1667 400,-47.1667 400,-54.8333 400,-54.8333 400,-58.6667 396.167,-62.5 392.333,-62.5"/>
<text text-anchor="middle" x="340" y="-47.3" font-family="Arial" font-size="14.00" fill="#c6c5fe">mapped&#45;types.ts</text>
</g>
<!-- index.ts&#45;&gt;mapped&#45;types.ts -->
<g id="edge3" class="edge"><title>index.ts&#45;&gt;mapped&#45;types.ts</title>
<path fill="none" stroke="#757575" d="M65.7772,-68.9162C113.787,-65.7681 205.984,-59.7223 269.921,-55.5297"/>
<polygon fill="#757575" stroke="#757575" points="270.18,-59.0204 279.929,-54.8735 269.722,-52.0354 270.18,-59.0204"/>
</g>
<!-- utility&#45;types.ts -->
<g id="node5" class="node"><title>utility&#45;types.ts</title>
<path fill="none" stroke="#c6c5fe" d="M215.833,-22.5C215.833,-22.5 130.167,-22.5 130.167,-22.5 126.333,-22.5 122.5,-18.6667 122.5,-14.8333 122.5,-14.8333 122.5,-7.16667 122.5,-7.16667 122.5,-3.33333 126.333,0.5 130.167,0.5 130.167,0.5 215.833,0.5 215.833,0.5 219.667,0.5 223.5,-3.33333 223.5,-7.16667 223.5,-7.16667 223.5,-14.8333 223.5,-14.8333 223.5,-18.6667 219.667,-22.5 215.833,-22.5"/>
<text text-anchor="middle" x="173" y="-7.3" font-family="Arial" font-size="14.00" fill="#c6c5fe">utility&#45;types.ts</text>
</g>
<!-- index.ts&#45;&gt;utility&#45;types.ts -->
<g id="edge4" class="edge"><title>index.ts&#45;&gt;utility&#45;types.ts</title>
<path fill="none" stroke="#757575" d="M55.1583,-59.6808C68.4391,-52.7618 86.0188,-43.9391 102,-37 110.914,-33.1295 120.609,-29.2965 129.865,-25.8107"/>
<polygon fill="#757575" stroke="#757575" points="131.137,-29.072 139.299,-22.317 128.706,-22.5077 131.137,-29.072"/>
</g>
<!-- mapped&#45;types.ts&#45;&gt;aliases&#45;and&#45;guards.ts -->
<g id="edge5" class="edge"><title>mapped&#45;types.ts&#45;&gt;aliases&#45;and&#45;guards.ts</title>
<path fill="none" stroke="#757575" d="M388.977,-62.3554C408.684,-67.0199 431.674,-72.4613 452.291,-77.341"/>
<polygon fill="#757575" stroke="#757575" points="451.659,-80.7881 462.196,-79.6855 453.271,-73.9763 451.659,-80.7881"/>
</g>
<!-- utility&#45;types.ts&#45;&gt;mapped&#45;types.ts -->
<g id="edge6" class="edge"><title>utility&#45;types.ts&#45;&gt;mapped&#45;types.ts</title>
<path fill="none" stroke="#757575" d="M220.841,-22.3554C239.995,-26.9987 262.324,-32.4119 282.382,-37.2744"/>
<polygon fill="#757575" stroke="#757575" points="281.785,-40.7309 292.328,-39.6855 283.434,-33.9279 281.785,-40.7309"/>
</g>
</g>
</svg>
